<?xml version="1.0" standalone="no"?><!DOCTYPE svg PUBLIC "-//W3C//DTD SVG 1.1//EN"
        "http://www.w3.org/Graphics/SVG/1.1/DTD/svg11.dtd">
<svg t="1715355085037" class="icon" viewBox="0 0 1024 1024" version="1.1" xmlns="http://www.w3.org/2000/svg" p-id="8344"
     xmlns:xlink="http://www.w3.org/1999/xlink" width="200" height="200">
    <path d="M899.799407 925.324599H131.578755a48.543355 48.543355 0 0 0-48.366833 48.366834v1.235649A48.543355 48.543355 0 0 0 131.578755 1024H899.799407a48.366833 48.366833 0 0 0 48.366833-48.366833v-1.235649a48.366833 48.366833 0 0 0-48.366833-48.366834z"
          fill="#FF517F" p-id="8345"></path>
    <path d="M689.915594 748.979831A62.312015 62.312015 0 1 0 752.227609 812.174453a62.312015 62.312015 0 0 0-62.312015-62.312015z"
          fill="#FF517F" opacity=".3" p-id="8346"></path>
    <path d="M903.329833 1022.58783a43.424237 43.424237 0 0 1-9.355629-1.059128 43.953801 43.953801 0 0 1-33.715566-52.956387 357.632132 357.632132 0 0 0-92.673677-323.387002 44.130322 44.130322 0 1 1 63.194622-61.60593A445.539735 445.539735 0 0 1 946.401027 988.695742a44.130322 44.130322 0 0 1-43.071194 33.892088zM115.162275 997.521807a44.130322 44.130322 0 0 1-43.600758-37.422514 446.24582 446.24582 0 0 1 315.090501-493.023961 441.303224 441.303224 0 0 1 136.097915-17.652129A44.130322 44.130322 0 0 1 565.821127 494.436132a44.659886 44.659886 0 0 1-45.18945 43.071194 357.102569 357.102569 0 0 0-361.868643 409.352871 43.953801 43.953801 0 0 1-36.89295 50.132046z"
          fill="#FF517F" p-id="8347"></path>
    <path d="M521.690805 536.977762A268.488881 268.488881 0 1 1 790.356207 268.665403a268.841924 268.841924 0 0 1-268.665402 268.312359z m0-448.540596A180.228237 180.228237 0 1 0 702.095563 268.665403 180.404758 180.404758 0 0 0 521.690805 88.437166z"
          fill="#FF517F" p-id="8348"></path>
</svg>