<?xml version="1.0" standalone="no"?><!DOCTYPE svg PUBLIC "-//W3C//DTD SVG 1.1//EN" "http://www.w3.org/Graphics/SVG/1.1/DTD/svg11.dtd"><svg t="1715355151607" class="icon" viewBox="0 0 1024 1024" version="1.1" xmlns="http://www.w3.org/2000/svg" p-id="12432" xmlns:xlink="http://www.w3.org/1999/xlink" width="200" height="200"><path d="M828.952381 633.904762c-40.228571 0-73.142857-31.158857-73.142857-69.241905 0-10.337524 7.314286-17.261714 18.285714-17.261714s18.285714 6.92419 18.285714 17.310476c0 19.017143 16.481524 34.620952 36.571429 34.620952s36.571429-15.60381 36.571429-34.620952c0-19.017143-16.481524-34.620952-36.571429-34.620952a17.066667 17.066667 0 0 1-12.775619-5.168762 15.311238 15.311238 0 0 1-5.510095-12.141715V114.834286c0-10.386286 7.314286-17.310476 18.285714-17.310476s18.285714 6.92419 18.285714 17.310476v382.390857c31.110095 6.92419 54.857143 34.620952 54.857143 67.486476 0 38.034286-32.914286 69.193143-73.142857 69.193143" fill="#53DBA6" p-id="12433"></path><path d="M316.952381 926.47619m-48.761905 0a48.761905 48.761905 0 1 0 97.52381 0 48.761905 48.761905 0 1 0-97.52381 0Z" fill="#53DBA6" p-id="12434"></path><path d="M463.238095 926.47619m-48.761905 0a48.761905 48.761905 0 1 0 97.52381 0 48.761905 48.761905 0 1 0-97.52381 0Z" fill="#53DBA6" p-id="12435"></path><path d="M609.52381 926.47619m-48.761905 0a48.761905 48.761905 0 1 0 97.523809 0 48.761905 48.761905 0 1 0-97.523809 0Z" fill="#53DBA6" p-id="12436"></path><path d="M804.376381 48.761905L414.47619 433.834667h126.927239c12.678095 0 25.404952 1.657905 36.278857 5.022476L853.333333 98.986667c-27.209143-1.657905-48.956952-23.405714-48.956952-50.224762M757.564952 1024H217.673143C165.449143 1024 121.904762 979.626667 121.904762 926.47619c0-53.150476 43.544381-97.52381 95.768381-97.523809h539.891809c52.224 0 95.768381 44.373333 95.768381 97.523809 0 53.150476-43.544381 97.52381-95.768381 97.52381zM225.426286 879.469714a39.448381 39.448381 0 0 0-11.702857-1.755428C189.537524 877.714286 170.666667 899.169524 170.666667 926.47619s18.919619 48.761905 43.008 48.761905a39.643429 39.643429 0 0 0 8.387047-0.877714A49.298286 49.298286 0 0 1 219.428571 975.238095h487.619048a43.349333 43.349333 0 0 1-2.584381-0.877714 39.643429 39.643429 0 0 0 8.289524 0.877714c24.137143 0 43.056762-21.455238 43.056762-48.761905s-18.919619-48.761905-43.008-48.761904a39.643429 39.643429 0 0 0-8.289524 0.877714A43.349333 43.349333 0 0 1 707.047619 877.714286H219.428571c2.048 0.438857 4.047238 0.975238 5.997715 1.755428zM365.714286 828.952381h195.047619v-48.761905H365.714286zM372.199619 476.793905c0-20.870095 16.091429-37.936762 35.791238-37.936762h139.459048c46.470095 0 87.576381 28.42819 103.667809 73.971809 5.36381 13.263238 7.168 28.42819 7.168 43.593143V780.190476H121.904762v-92.94019c0-32.182857 25.014857-58.758095 55.442286-58.758096h194.852571V476.793905zM463.238095 536.380952v146.285715h146.285715v-48.761905a97.52381 97.52381 0 0 0-97.52381-97.52381H463.238095z" fill="#53DBA6" p-id="12437"></path><path d="M902.095238 50.41981C902.095238 21.845333 878.787048 0 848.359619 0c-30.47619 0-53.735619 21.845333-53.735619 50.41981 0 28.623238 23.259429 50.468571 53.735619 50.468571 28.672 0 53.735619-21.845333 53.735619-50.468571z m-118.198857 124.44038l-7.168-90.794666c0-5.022476-1.80419-8.387048-5.36381-10.093714l-28.672 28.574476 7.168 77.385143-94.939428 11.751619-35.84 37.010285 7.168 107.617524-130.779429 16.774095L463.238095 385.072762A16.774095 16.774095 0 0 0 475.769905 390.095238h1.80419l152.234667-18.529524 30.47619-38.619428-7.168-104.252953 100.303238-11.800381 30.476191-42.032762zM885.857524 487.619048h-65.048381c-9.752381 0-16.237714-9.752381-16.237714-24.380953s6.485333-24.380952 16.237714-24.380952h65.048381c9.752381 0 16.237714 9.752381 16.237714 24.380952s-6.485333 24.380952-16.237714 24.380953" fill="#53DBA6" p-id="12438"></path></svg>