<?xml version="1.0" standalone="no"?><!DOCTYPE svg PUBLIC "-//W3C//DTD SVG 1.1//EN" "http://www.w3.org/Graphics/SVG/1.1/DTD/svg11.dtd"><svg t="1715422011526" class="icon" viewBox="0 0 1024 1024" version="1.1" xmlns="http://www.w3.org/2000/svg" p-id="10284" xmlns:xlink="http://www.w3.org/1999/xlink" width="200" height="200"><path d="M511.500975 977.900039c-218.273684 0-395.22807 12.246082-395.228071-127.650682 0-115.135127 69.454347-213.982066 187.603587-279.044991 58.126472-32.017466 135.645068 25.370448 207.624484 25.370449 82.069708 0 166.325146-54.264016 229.501754-16.168421C845.847953 643.632904 906.729045 731.301676 906.729045 850.249357c0 139.896764-176.954386 127.650682-395.22807 127.650682zM511.500975 551.922027c-140.00655 0-253.504873-113.498324-253.504874-253.504873S371.494425 44.912281 511.500975 44.912281s253.504873 113.498324 253.504873 253.504873-113.498324 253.504873-253.504873 253.504873z" fill="#E61D15" p-id="10285"></path></svg>